solid CATIA STL
   color       0.54118 0.5451 0.29412
  facet normal -1 0 5.33288282E-09
    outer loop
      vertex 0.0984906708 -0.2273939 0.674986623
      vertex 0.0984906713 -0.1984432 0.773740076
      vertex 0.0984906708 -0.1984432 0.674986623
    endloop
  endfacet
  facet normal -1 0 5.33288282E-09
    outer loop
      vertex 0.0984906708 -0.2273939 0.674986623
      vertex 0.0984906713 -0.2563445 0.773740076
      vertex 0.0984906713 -0.2273939 0.773740076
    endloop
  endfacet
  facet normal -0.99997241 -0 -0.00742823375
    outer loop
      vertex 0.0988574629 -0.0808336361 0.7243634
      vertex 0.0984906713 -0.1405418 0.773740076
      vertex 0.0984906713 -0.1115912 0.773740076
    endloop
  endfacet
  facet normal -1 0 5.33288282E-09
    outer loop
      vertex 0.0984906708 -0.1405418 0.674986623
      vertex 0.0984906713 -0.1405418 0.773740076
      vertex 0.0984906708 -0.1115912 0.674986623
    endloop
  endfacet
  facet normal -1 0 5.33288282E-09
    outer loop
      vertex 0.0984906708 -0.2852952 0.674986623
      vertex 0.0984906713 -0.2563445 0.773740076
      vertex 0.0984906708 -0.2563445 0.674986623
    endloop
  endfacet
  facet normal -0.999950151 0.00958148159 0.00280891614
    outer loop
      vertex 0.0984906708 -0.1115912 0.674986623
      vertex 0.0984906713 -0.1405418 0.773740076
      vertex 0.0988574629 -0.0808336361 0.7006445
    endloop
  endfacet
  facet normal -0.999950151 -0.00958147509 0.00280892393
    outer loop
      vertex 0.0988574629 -0.316052764 0.7006445
      vertex 0.0984906713 -0.2563445 0.773740076
      vertex 0.0984906708 -0.2852952 0.674986623
    endloop
  endfacet
  facet normal -1 0 5.33288282E-09
    outer loop
      vertex 0.0984906708 -0.2563445 0.674986623
      vertex 0.0984906713 -0.2563445 0.773740076
      vertex 0.0984906708 -0.2273939 0.674986623
    endloop
  endfacet
  facet normal -0.428731474 0.903431969 -8.78958515E-17
    outer loop
      vertex 0.0992198289 -0.3158808 0.773555549
      vertex 0.0988574629 -0.316052764 0.7480823
      vertex -0.246780171 -0.4800781 0.861117749
    endloop
  endfacet
  facet normal -0.428731474 0.903431969 1.38890984E-16
    outer loop
      vertex 0.0988574629 -0.316052764 0.7480823
      vertex -0.247142537 -0.480250064 0.7918634
      vertex -0.246780171 -0.4800781 0.861117749
    endloop
  endfacet
  facet normal -0.428731474 0.903431969 0
    outer loop
      vertex 0.0988574629 -0.316052764 0.7480823
      vertex 0.0988574629 -0.316052764 0.7243634
      vertex -0.247142537 -0.480250064 0.7918634
    endloop
  endfacet
  facet normal -0.245335667 9.35379146E-16 -0.969438193
    outer loop
      vertex -0.247509329 0.0115568 0.861302276
      vertex -0.246780171 0.0831917 0.861117749
      vertex 0.0984906713 -0.1115912 0.773740076
    endloop
  endfacet
  facet normal -0.245335667 0 -0.969438193
    outer loop
      vertex -0.247509329 -0.0584432 0.861302276
      vertex -0.247509329 0.0115568 0.861302276
      vertex 0.0984906713 -0.1405418 0.773740076
    endloop
  endfacet
  facet normal -0.245335667 0 -0.969438193
    outer loop
      vertex -0.247509329 -0.1284432 0.861302276
      vertex -0.247509329 -0.0584432 0.861302276
      vertex 0.0984906713 -0.1694925 0.773740076
    endloop
  endfacet
  facet normal -0.245335667 2.17533051E-15 -0.969438193
    outer loop
      vertex -0.246780171 0.0831917 0.861117749
      vertex 0.0992198289 -0.0810056 0.773555549
      vertex 0.0984906713 -0.1115912 0.773740076
    endloop
  endfacet
  facet normal -0.245335667 0 -0.969438193
    outer loop
      vertex -0.247509329 0.0115568 0.861302276
      vertex 0.0984906713 -0.1115912 0.773740076
      vertex 0.0984906713 -0.1405418 0.773740076
    endloop
  endfacet
  facet normal -0.245335667 0 -0.969438193
    outer loop
      vertex -0.247509329 -0.0584432 0.861302276
      vertex 0.0984906713 -0.1405418 0.773740076
      vertex 0.0984906713 -0.1694925 0.773740076
    endloop
  endfacet
  facet normal -0.245335667 0 -0.969438193
    outer loop
      vertex -0.247509329 -0.1284432 0.861302276
      vertex 0.0984906713 -0.1694925 0.773740076
      vertex 0.0984906713 -0.1984432 0.773740076
    endloop
  endfacet
  facet normal -0.245335667 0 -0.969438193
    outer loop
      vertex -0.247509329 -0.1984432 0.861302276
      vertex -0.247509329 -0.1284432 0.861302276
      vertex 0.0984906713 -0.1984432 0.773740076
    endloop
  endfacet
  facet normal -0.99997241 -0 -0.00742823375
    outer loop
      vertex 0.0988574629 -0.316052764 0.7243634
      vertex 0.0984906713 -0.2852952 0.773740076
      vertex 0.0984906713 -0.2563445 0.773740076
    endloop
  endfacet
  facet normal -0.245335404 1.81944987E-15 0.96943826
    outer loop
      vertex -0.247509329 -0.4084432 0.587424523
      vertex -0.246780171 -0.4800781 0.587609051
      vertex 0.0992198285 -0.3158808 0.675171151
    endloop
  endfacet
  facet normal -0.245335404 4.24591264E-15 0.96943826
    outer loop
      vertex -0.247509329 -0.4084432 0.587424523
      vertex 0.0992198285 -0.3158808 0.675171151
      vertex 0.0984906708 -0.2852952 0.674986623
    endloop
  endfacet
  facet normal -0.245335404 0 0.96943826
    outer loop
      vertex -0.247509329 -0.3384432 0.587424523
      vertex -0.247509329 -0.4084432 0.587424523
      vertex 0.0984906708 -0.2852952 0.674986623
    endloop
  endfacet
  facet normal -0.245335404 0 0.96943826
    outer loop
      vertex -0.247509329 -0.3384432 0.587424523
      vertex 0.0984906708 -0.2852952 0.674986623
      vertex 0.0984906708 -0.2563445 0.674986623
    endloop
  endfacet
  facet normal -0.245335404 0 0.96943826
    outer loop
      vertex -0.247509329 -0.2684432 0.587424523
      vertex -0.247509329 -0.3384432 0.587424523
      vertex 0.0984906708 -0.2563445 0.674986623
    endloop
  endfacet
  facet normal -0.245335404 0 0.96943826
    outer loop
      vertex -0.247509329 -0.2684432 0.587424523
      vertex 0.0984906708 -0.2563445 0.674986623
      vertex 0.0984906708 -0.2273939 0.674986623
    endloop
  endfacet
  facet normal -0.999928902 0.0119244013 0
    outer loop
      vertex 0.0988574629 -0.0808336361 0.7243634
      vertex 0.0984906713 -0.1115912 0.773740076
      vertex 0.0988574629 -0.0808336361 0.7480823
    endloop
  endfacet
  facet normal -1 0 5.33288282E-09
    outer loop
      vertex 0.0984906708 -0.1984432 0.674986623
      vertex 0.0984906713 -0.1984432 0.773740076
      vertex 0.0984906713 -0.1694925 0.773740076
    endloop
  endfacet
  facet normal -0.245335404 0 0.96943826
    outer loop
      vertex -0.247509329 -0.1984432 0.587424523
      vertex -0.247509329 -0.2684432 0.587424523
      vertex 0.0984906708 -0.2273939 0.674986623
    endloop
  endfacet
  facet normal -0.245335404 0 0.96943826
    outer loop
      vertex -0.247509329 -0.1984432 0.587424523
      vertex 0.0984906708 -0.2273939 0.674986623
      vertex 0.0984906708 -0.1984432 0.674986623
    endloop
  endfacet
  facet normal -0.245335404 0 0.96943826
    outer loop
      vertex -0.247509329 -0.1284432 0.587424523
      vertex -0.247509329 -0.1984432 0.587424523
      vertex 0.0984906708 -0.1984432 0.674986623
    endloop
  endfacet
  facet normal -0.245335404 -4.23403803E-15 0.96943826
    outer loop
      vertex 0.0984906708 -0.1115912 0.674986623
      vertex 0.0992198285 -0.0810055998 0.675171151
      vertex -0.246780171 0.0831917002 0.587609051
    endloop
  endfacet
  facet normal -0.245335404 -1.82216729E-15 0.96943826
    outer loop
      vertex 0.0984906708 -0.1115912 0.674986623
      vertex -0.246780171 0.0831917002 0.587609051
      vertex -0.247509329 0.0115568 0.587424523
    endloop
  endfacet
  facet normal -1 0 5.33288282E-09
    outer loop
      vertex 0.0984906708 -0.2273939 0.674986623
      vertex 0.0984906713 -0.2273939 0.773740076
      vertex 0.0984906713 -0.1984432 0.773740076
    endloop
  endfacet
  facet normal -0.245335404 0 0.96943826
    outer loop
      vertex 0.0984906708 -0.1405418 0.674986623
      vertex 0.0984906708 -0.1115912 0.674986623
      vertex -0.247509329 0.0115568 0.587424523
    endloop
  endfacet
  facet normal -0.245335404 0 0.96943826
    outer loop
      vertex 0.0984906708 -0.1405418 0.674986623
      vertex -0.247509329 0.0115568 0.587424523
      vertex -0.247509329 -0.0584432 0.587424523
    endloop
  endfacet
  facet normal -0.999981132 0.00614295715 0
    outer loop
      vertex 0.0988574629 -0.0808336361 0.7006445
      vertex 0.0984906713 -0.1405418 0.773740076
      vertex 0.0988574629 -0.0808336361 0.7243634
    endloop
  endfacet
  facet normal -0.245335404 0 0.96943826
    outer loop
      vertex 0.0984906708 -0.1694925 0.674986623
      vertex 0.0984906708 -0.1405418 0.674986623
      vertex -0.247509329 -0.0584432 0.587424523
    endloop
  endfacet
  facet normal -0.245335404 0 0.96943826
    outer loop
      vertex 0.0984906708 -0.1694925 0.674986623
      vertex -0.247509329 -0.0584432 0.587424523
      vertex -0.247509329 -0.1284432 0.587424523
    endloop
  endfacet
  facet normal -0.245335404 0 0.96943826
    outer loop
      vertex 0.0984906708 -0.1984432 0.674986623
      vertex 0.0984906708 -0.1694925 0.674986623
      vertex -0.247509329 -0.1284432 0.587424523
    endloop
  endfacet
  facet normal -0.428731474 -0.903431969 -1.68870109E-16
    outer loop
      vertex 0.0992198285 -0.0810055998 0.675171151
      vertex 0.0988574629 -0.0808336361 0.7006445
      vertex -0.246780171 0.0831917002 0.587609051
    endloop
  endfacet
  facet normal -0.428731474 -0.903431969 0
    outer loop
      vertex 0.0988574629 -0.0808336361 0.7006445
      vertex 0.0988574629 -0.0808336361 0.7243634
      vertex -0.247142537 0.0833636639 0.6568634
    endloop
  endfacet
  facet normal -0.428731474 -0.903431969 0
    outer loop
      vertex 0.0988574629 -0.0808336361 0.7243634
      vertex 0.0988574629 -0.0808336361 0.7480823
      vertex -0.247142537 0.0833636639 0.7243634
    endloop
  endfacet
  facet normal -0.428731474 -0.903431969 -8.73604433E-17
    outer loop
      vertex 0.0988574629 -0.0808336361 0.7480823
      vertex 0.0992198289 -0.0810056 0.773555549
      vertex -0.247142537 0.0833636639 0.7918634
    endloop
  endfacet
  facet normal -0.428731474 -0.903431969 -4.15887155E-17
    outer loop
      vertex 0.0992198289 -0.0810056 0.773555549
      vertex -0.246780171 0.0831917 0.861117749
      vertex -0.247142537 0.0833636639 0.7918634
    endloop
  endfacet
  facet normal -0.428731474 -0.903431969 0
    outer loop
      vertex 0.0988574629 -0.0808336361 0.7480823
      vertex -0.247142537 0.0833636639 0.7918634
      vertex -0.247142537 0.0833636639 0.7243634
    endloop
  endfacet
  facet normal -0.428731474 -0.903431969 0
    outer loop
      vertex 0.0988574629 -0.0808336361 0.7243634
      vertex -0.247142537 0.0833636639 0.7243634
      vertex -0.247142537 0.0833636639 0.6568634
    endloop
  endfacet
  facet normal -0.428731474 -0.903431969 -5.31053761E-17
    outer loop
      vertex 0.0988574629 -0.0808336361 0.7006445
      vertex -0.247142537 0.0833636639 0.6568634
      vertex -0.246780171 0.0831917002 0.587609051
    endloop
  endfacet
  facet normal -0.245335667 0 -0.969438193
    outer loop
      vertex -0.247509329 -0.1984432 0.861302276
      vertex 0.0984906713 -0.1984432 0.773740076
      vertex 0.0984906713 -0.2273939 0.773740076
    endloop
  endfacet
  facet normal -0.245335667 0 -0.969438193
    outer loop
      vertex -0.247509329 -0.2684432 0.861302276
      vertex -0.247509329 -0.1984432 0.861302276
      vertex 0.0984906713 -0.2273939 0.773740076
    endloop
  endfacet
  facet normal -0.245335667 -9.34255003E-16 -0.969438193
    outer loop
      vertex -0.246780171 -0.4800781 0.861117749
      vertex -0.247509329 -0.4084432 0.861302276
      vertex 0.0992198289 -0.3158808 0.773555549
    endloop
  endfacet
  facet normal -0.245335667 -2.18143135E-15 -0.969438193
    outer loop
      vertex -0.247509329 -0.4084432 0.861302276
      vertex 0.0984906713 -0.2852952 0.773740076
      vertex 0.0992198289 -0.3158808 0.773555549
    endloop
  endfacet
  facet normal -0.245335667 0 -0.969438193
    outer loop
      vertex -0.247509329 -0.4084432 0.861302276
      vertex -0.247509329 -0.3384432 0.861302276
      vertex 0.0984906713 -0.2852952 0.773740076
    endloop
  endfacet
  facet normal -0.245335667 0 -0.969438193
    outer loop
      vertex -0.247509329 -0.3384432 0.861302276
      vertex 0.0984906713 -0.2563445 0.773740076
      vertex 0.0984906713 -0.2852952 0.773740076
    endloop
  endfacet
  facet normal -0.245335667 0 -0.969438193
    outer loop
      vertex -0.247509329 -0.2684432 0.861302276
      vertex 0.0984906713 -0.2273939 0.773740076
      vertex 0.0984906713 -0.2563445 0.773740076
    endloop
  endfacet
  facet normal -0.245335667 0 -0.969438193
    outer loop
      vertex -0.247509329 -0.3384432 0.861302276
      vertex -0.247509329 -0.2684432 0.861302276
      vertex 0.0984906713 -0.2563445 0.773740076
    endloop
  endfacet
  facet normal -0.428731474 0.903431969 1.27827892E-16
    outer loop
      vertex 0.0992198285 -0.3158808 0.675171151
      vertex -0.246780171 -0.4800781 0.587609051
      vertex -0.247142537 -0.480250064 0.6568634
    endloop
  endfacet
  facet normal -0.999981132 -0.00614294687 0
    outer loop
      vertex 0.0988574629 -0.316052764 0.7243634
      vertex 0.0984906713 -0.2563445 0.773740076
      vertex 0.0988574629 -0.316052764 0.7006445
    endloop
  endfacet
  facet normal -1 0 5.33288282E-09
    outer loop
      vertex 0.0984906708 -0.1694925 0.674986623
      vertex 0.0984906713 -0.1405418 0.773740076
      vertex 0.0984906708 -0.1405418 0.674986623
    endloop
  endfacet
  facet normal -0.428731474 0.903431969 8.146676E-16
    outer loop
      vertex 0.0988574629 -0.316052764 0.7006445
      vertex 0.0992198285 -0.3158808 0.675171151
      vertex -0.247142537 -0.480250064 0.6568634
    endloop
  endfacet
  facet normal -0.428731474 0.903431969 0
    outer loop
      vertex 0.0988574629 -0.316052764 0.7006445
      vertex -0.247142537 -0.480250064 0.6568634
      vertex -0.247142537 -0.480250064 0.7243634
    endloop
  endfacet
  facet normal -0.428731474 0.903431969 0
    outer loop
      vertex 0.0988574629 -0.316052764 0.7243634
      vertex 0.0988574629 -0.316052764 0.7006445
      vertex -0.247142537 -0.480250064 0.7243634
    endloop
  endfacet
  facet normal -1 0 5.33288282E-09
    outer loop
      vertex 0.0984906708 -0.1984432 0.674986623
      vertex 0.0984906713 -0.1694925 0.773740076
      vertex 0.0984906708 -0.1694925 0.674986623
    endloop
  endfacet
  facet normal -0.999928902 -0.0119244013 0
    outer loop
      vertex 0.0988574629 -0.316052764 0.7243634
      vertex 0.0988574629 -0.316052764 0.7480823
      vertex 0.0984906713 -0.2852952 0.773740076
    endloop
  endfacet
  facet normal -0.999610493 0.0239173752 0.0143812716
    outer loop
      vertex 0.0988574629 -0.0808336361 0.7480823
      vertex 0.0984906713 -0.1115912 0.773740076
      vertex 0.0992198289 -0.0810056 0.773555549
    endloop
  endfacet
  facet normal -0.999610493 -0.0239173752 0.0143812716
    outer loop
      vertex 0.0984906713 -0.2852952 0.773740076
      vertex 0.0988574629 -0.316052764 0.7480823
      vertex 0.0992198289 -0.3158808 0.773555549
    endloop
  endfacet
  facet normal -1 0 5.33288282E-09
    outer loop
      vertex 0.0984906708 -0.1694925 0.674986623
      vertex 0.0984906713 -0.1694925 0.773740076
      vertex 0.0984906713 -0.1405418 0.773740076
    endloop
  endfacet
  facet normal -0.999610494 -0.0239173803 -0.0143812011
    outer loop
      vertex 0.0988574629 -0.316052764 0.7006445
      vertex 0.0984906708 -0.2852952 0.674986623
      vertex 0.0992198285 -0.3158808 0.675171151
    endloop
  endfacet
  facet normal -0.999610494 0.0239173803 -0.0143812011
    outer loop
      vertex 0.0984906708 -0.1115912 0.674986623
      vertex 0.0988574629 -0.0808336361 0.7006445
      vertex 0.0992198285 -0.0810055998 0.675171151
    endloop
  endfacet
  facet normal -0.428731474 0.903431969 0
    outer loop
      vertex 0.0988574629 -0.316052764 0.7243634
      vertex -0.247142537 -0.480250064 0.7243634
      vertex -0.247142537 -0.480250064 0.7918634
    endloop
  endfacet
endsolid CATIA STL
solid CATIA STL
   color       0.56863 0.1451 0.047059
  facet normal -0.956450484 0.291894626 0
    outer loop
      vertex -0.253 -0.4994432 0.5733634
      vertex -0.247142537 -0.480250064 0.7243634
      vertex -0.247142537 -0.480250064 0.6568634
    endloop
  endfacet
  facet normal 0 0 1
    outer loop
      vertex -0.782318906 0.2495568 0.240074
      vertex -0.352 -0.31555578 0.240074
      vertex -0.352 0.140845579 0.240074
    endloop
  endfacet
  facet normal -1 -0 -0
    outer loop
      vertex -0.352 0.1780568 0.4057187
      vertex -0.352 0.12270119 0.4057187
      vertex -0.352 0.1025568 0.5733634
    endloop
  endfacet
  facet normal -1 -0 0
    outer loop
      vertex -0.352 -0.144099789 0.4057187
      vertex -0.352 -0.5749431 0.52586367
      vertex -0.352 -0.4994432 0.5733634
    endloop
  endfacet
  facet normal -2.38408439E-16 -1 1.69222596E-16
    outer loop
      vertex -0.8 0.2495568 0.7072185
      vertex -1.248 0.2495568 0.240074
      vertex -0.782318906 0.2495568 0.240074
    endloop
  endfacet
  facet normal 0 0 -1
    outer loop
      vertex -0.8 -0.1984431 1.172363
      vertex -1.248 -0.6464432 1.172363
      vertex -1.248 0.2495568 1.172363
    endloop
  endfacet
  facet normal 0 0 1
    outer loop
      vertex -0.352 -0.634702782 0.240074
      vertex -1.19086044 -0.6464432 0.240074
      vertex -0.352 -0.646443 0.240074
    endloop
  endfacet
  facet normal 1 7.42921451E-16 -2.38171431E-16
    outer loop
      vertex -1.248 -0.1984431 0.7072185
      vertex -1.248 0.2495568 0.240074
      vertex -1.248 0.2495568 1.172363
    endloop
  endfacet
  facet normal -1 -0 0
    outer loop
      vertex -0.352 0.1780568 0.4057187
      vertex -0.352 0.1025568 0.5733634
      vertex -0.352 0.1025568 0.8753634
    endloop
  endfacet
  facet normal -1 0 0
    outer loop
      vertex -0.352 -0.5749431 0.52586367
      vertex -0.352 -0.144099789 0.4057187
      vertex -0.352 -0.392756378 0.240074
    endloop
  endfacet
  facet normal 2.58000057E-16 -1 1.88011311E-16
    outer loop
      vertex -0.8 0.2495568 0.7072185
      vertex -0.782318906 0.2495568 0.240074
      vertex -0.352 0.2495568 0.240074
    endloop
  endfacet
  facet normal 0 1 0
    outer loop
      vertex -0.8 -0.6464432 0.7072185
      vertex -1.248 -0.6464432 1.172363
      vertex -0.35 -0.6464432 1.172363
    endloop
  endfacet
  facet normal -1 0 0
    outer loop
      vertex -0.352 -0.144099789 0.4057187
      vertex -0.352 0.12270119 0.4057187
      vertex -0.352 -0.31555578 0.240074
    endloop
  endfacet
  facet normal -0.931501248 0 0.363738126
    outer loop
      vertex -0.253 -0.4994432 0.5733634
      vertex -0.247509329 -0.1984432 0.587424523
      vertex -0.253 0.1025568 0.5733634
    endloop
  endfacet
  facet normal -0.912273469 -0.00823100674 0.409498923
    outer loop
      vertex -0.246780171 -0.4800781 0.587609051
      vertex -0.247509329 -0.4084432 0.587424523
      vertex -0.253 -0.4994432 0.5733634
    endloop
  endfacet
  facet normal -1 0 -0
    outer loop
      vertex -0.352 -0.144099789 0.4057187
      vertex -0.352 -0.31555578 0.240074
      vertex -0.352 -0.392756378 0.240074
    endloop
  endfacet
  facet normal 1 8.54074121E-16 -1.3157404E-16
    outer loop
      vertex -1.248 -0.1984431 0.7072185
      vertex -1.248 -0.0104260275 0.240074
      vertex -1.248 0.2495568 0.240074
    endloop
  endfacet
  facet normal -1 1.12511714E-09 2.40862011E-12
    outer loop
      vertex -0.352 -0.648443 1.17436218
      vertex -0.352 -0.646443 0.240074
      vertex -0.352 -0.6484431 1.1743628
    endloop
  endfacet
  facet normal -1 0 0
    outer loop
      vertex -0.352 0.12270119 0.4057187
      vertex -0.352 -0.144099789 0.4057187
      vertex -0.352 0.1025568 0.5733634
    endloop
  endfacet
  facet normal -0.956450484 0.291894626 0
    outer loop
      vertex -0.253 -0.4994432 0.8753634
      vertex -0.247142537 -0.480250064 0.7918634
      vertex -0.247142537 -0.480250064 0.7243634
    endloop
  endfacet
  facet normal -0.999641652 -0.0172798409 -0.0204444306
    outer loop
      vertex -0.253 0.1025568 0.8753634
      vertex -0.246780171 0.0831917002 0.587609051
      vertex -0.247509329 -0.1984432 0.861302276
    endloop
  endfacet
  facet normal -0.952095398 -0.305801167 0
    outer loop
      vertex -0.253 0.1025568 0.5733634
      vertex -0.246780171 0.0831917002 0.587609051
      vertex -0.253 0.1025568 0.8753634
    endloop
  endfacet
  facet normal -0.931501248 0 0.363738126
    outer loop
      vertex -0.247509329 -0.1284432 0.587424523
      vertex -0.247509329 -0.0584432 0.587424523
      vertex -0.253 0.1025568 0.5733634
    endloop
  endfacet
  facet normal -0.931501248 0 0.363738126
    outer loop
      vertex -0.247509329 -0.0584432 0.587424523
      vertex -0.247509329 0.0115568 0.587424523
      vertex -0.253 0.1025568 0.5733634
    endloop
  endfacet
  facet normal 0.706330218 -0.707880871 -0.00151541208
    outer loop
      vertex -0.352 -0.6484431 1.1743628
      vertex -0.352 -0.646443 0.240074
      vertex -0.35 -0.6464432 1.172363
    endloop
  endfacet
  facet normal 1.10539949E-13 1.11033406E-13 1
    outer loop
      vertex -0.35 -0.6464432 1.172363
      vertex -0.8 -0.1984431 1.172363
      vertex -0.35 -0.648443 1.172363
    endloop
  endfacet
  facet normal -3.09107508E-17 -1 -2.97714288E-17
    outer loop
      vertex -1.248 0.2495568 0.240074
      vertex -0.8 0.2495568 0.7072185
      vertex -1.248 0.2495568 1.172363
    endloop
  endfacet
  facet normal -1 0 -0
    outer loop
      vertex -0.352 0.2495568 1.172363
      vertex -0.352 0.1780568 0.4057187
      vertex -0.352 0.1025568 0.8753634
    endloop
  endfacet
  facet normal -1 0 -0
    outer loop
      vertex -0.352 0.1025568 0.5733634
      vertex -0.352 -0.144099789 0.4057187
      vertex -0.352 -0.4994432 0.5733634
    endloop
  endfacet
  facet normal -1 -4.70945103E-16 1.1782276E-16
    outer loop
      vertex -0.352 -0.5749431 0.52586367
      vertex -0.352 -0.646443 0.240074
      vertex -0.352 -0.648443 1.17436218
    endloop
  endfacet
  facet normal -1 -2.46716853E-16 6.25515287E-16
    outer loop
      vertex -0.352 -0.5749431 1.02586279
      vertex -0.352 -0.648443 1.17436218
      vertex -0.352 -0.1984431 1.17436259
    endloop
  endfacet
  facet normal 0.999980874 0.00331064677 0.00522406661
    outer loop
      vertex -0.247509329 -0.1284432 0.861302276
      vertex -0.246780171 0.0831917002 0.587609051
      vertex -0.247142537 0.0833636639 0.6568634
    endloop
  endfacet
  facet normal -0.951180972 0.308604973 -0.00421065799
    outer loop
      vertex -0.253 -0.4994432 0.5733634
      vertex -0.247142537 -0.480250064 0.6568634
      vertex -0.246780171 -0.4800781 0.587609051
    endloop
  endfacet
  facet normal -0.931501238 0 -0.363738154
    outer loop
      vertex -0.253 0.1025568 0.8753634
      vertex -0.247509329 -0.1984432 0.861302276
      vertex -0.253 -0.4994432 0.8753634
    endloop
  endfacet
  facet normal -1 0 1.67560904E-15
    outer loop
      vertex -0.352 0.12270119 0.4057187
      vertex -0.352 0.161402396 0.240074
      vertex -0.352 0.140845579 0.240074
    endloop
  endfacet
  facet normal 0 1 0
    outer loop
      vertex -1.248 -0.6464432 0.240074
      vertex -0.8 -0.6464432 0.7072185
      vertex -1.19086044 -0.6464432 0.240074
    endloop
  endfacet
  facet normal -0.931501248 0 0.363738126
    outer loop
      vertex -0.247509329 -0.1984432 0.587424523
      vertex -0.247509329 -0.1284432 0.587424523
      vertex -0.253 0.1025568 0.5733634
    endloop
  endfacet
  facet normal -1 4.70488828E-29 1.67560904E-15
    outer loop
      vertex -0.352 0.12270119 0.4057187
      vertex -0.352 0.1780568 0.4057187
      vertex -0.352 0.161402396 0.240074
    endloop
  endfacet
  facet normal -1 0 0
    outer loop
      vertex -0.352 -0.444360865 0.240074
      vertex -0.352 -0.5749431 0.52586367
      vertex -0.352 -0.392756378 0.240074
    endloop
  endfacet
  facet normal -1 0 0
    outer loop
      vertex -0.352 -0.634702782 0.240074
      vertex -0.352 -0.5749431 0.52586367
      vertex -0.352 -0.444360865 0.240074
    endloop
  endfacet
  facet normal -1 -3.62834182E-18 -2.66671217E-10
    outer loop
      vertex -0.352 -0.1984431 1.17436259
      vertex -0.352 -0.648443 1.17436218
      vertex -0.352 -0.648443 1.1743626
    endloop
  endfacet
  facet normal -1 0 0
    outer loop
      vertex -0.352 -0.5749431 1.02586279
      vertex -0.352 -0.1984431 1.17436259
      vertex -0.352 -0.4994432 0.8753634
    endloop
  endfacet
  facet normal 0.894787061 0.00199284468 0.446488684
    outer loop
      vertex -0.352 -0.1984431 1.17436259
      vertex -0.35 -0.648443 1.172363
      vertex -0.352 0.2495568 1.172363
    endloop
  endfacet
  facet normal 0 0 1
    outer loop
      vertex -0.782318906 0.2495568 0.240074
      vertex -0.352 0.140845579 0.240074
      vertex -0.352 0.161402396 0.240074
    endloop
  endfacet
  facet normal 0 0 1
    outer loop
      vertex -0.782318906 0.2495568 0.240074
      vertex -1.248 0.2495568 0.240074
      vertex -1.248 -0.0104260275 0.240074
    endloop
  endfacet
  facet normal 2.46716228E-16 -2.46716283E-16 -1
    outer loop
      vertex -0.35 -0.648443 1.172363
      vertex -0.8 -0.1984431 1.172363
      vertex -0.352 0.2495568 1.172363
    endloop
  endfacet
  facet normal 0 0 1
    outer loop
      vertex -0.352 -0.31555578 0.240074
      vertex -1.19086044 -0.6464432 0.240074
      vertex -0.352 -0.392756378 0.240074
    endloop
  endfacet
  facet normal -0 0 1
    outer loop
      vertex -1.19086044 -0.6464432 0.240074
      vertex -0.352 -0.31555578 0.240074
      vertex -1.248 -0.0104260275 0.240074
    endloop
  endfacet
  facet normal 0 -0 1
    outer loop
      vertex -0.352 -0.31555578 0.240074
      vertex -0.782318906 0.2495568 0.240074
      vertex -1.248 -0.0104260275 0.240074
    endloop
  endfacet
  facet normal -1 -1.51050957E-15 -1.34160437E-30
    outer loop
      vertex -0.352 -0.5749431 1.02586279
      vertex -0.352 -0.5749431 0.52586367
      vertex -0.352 -0.648443 1.17436218
    endloop
  endfacet
  facet normal 0 0 1
    outer loop
      vertex -1.19086044 -0.6464432 0.240074
      vertex -1.248 -0.0104260275 0.240074
      vertex -1.248 -0.6464432 0.240074
    endloop
  endfacet
  facet normal 0 0 1
    outer loop
      vertex -0.352 0.2495568 0.240074
      vertex -0.782318906 0.2495568 0.240074
      vertex -0.352 0.161402396 0.240074
    endloop
  endfacet
  facet normal -1 0 0
    outer loop
      vertex -0.352 -0.1984431 1.17436259
      vertex -0.352 0.2495568 1.172363
      vertex -0.352 -0.4994432 0.8753634
    endloop
  endfacet
  facet normal 0.707035338 9.62190195E-09 0.707178217
    outer loop
      vertex -0.35 -0.648443 1.172363
      vertex -0.352 -0.1984431 1.17436259
      vertex -0.352 -0.648443 1.1743626
    endloop
  endfacet
  facet normal 0 1 0
    outer loop
      vertex -0.8 -0.6464432 0.7072185
      vertex -1.248 -0.6464432 0.240074
      vertex -1.248 -0.6464432 1.172363
    endloop
  endfacet
  facet normal 1 0 4.77366936E-16
    outer loop
      vertex -1.248 -0.6464432 1.172363
      vertex -1.248 -0.1984431 0.7072185
      vertex -1.248 0.2495568 1.172363
    endloop
  endfacet
  facet normal -0 0 -1
    outer loop
      vertex -0.8 -0.1984431 1.172363
      vertex -1.248 0.2495568 1.172363
      vertex -0.352 0.2495568 1.172363
    endloop
  endfacet
  facet normal -1 0 0
    outer loop
      vertex -0.352 -0.5749431 0.52586367
      vertex -0.352 -0.5749431 1.02586279
      vertex -0.352 -0.4994432 0.8753634
    endloop
  endfacet
  facet normal -1 0 0
    outer loop
      vertex -0.352 -0.5749431 0.52586367
      vertex -0.352 -0.4994432 0.8753634
      vertex -0.352 -0.4994432 0.5733634
    endloop
  endfacet
  facet normal -0.707071062 -7.851644E-14 -0.707142498
    outer loop
      vertex -0.352 -0.6484431 1.1743628
      vertex -0.35 -0.6464432 1.172363
      vertex -0.35 -0.648443 1.172363
    endloop
  endfacet
  facet normal 0.999996655 -0.00258654889 0
    outer loop
      vertex -0.247509329 -0.0584432 0.861302276
      vertex -0.247142537 0.0833636639 0.6568634
      vertex -0.247142537 0.0833636639 0.7243634
    endloop
  endfacet
  facet normal -0.931501238 0 -0.363738154
    outer loop
      vertex -0.253 -0.4994432 0.8753634
      vertex -0.247509329 -0.3384432 0.861302276
      vertex -0.247509329 -0.4084432 0.861302276
    endloop
  endfacet
  facet normal -0.931501248 0 0.363738126
    outer loop
      vertex -0.247509329 -0.3384432 0.587424523
      vertex -0.247509329 -0.2684432 0.587424523
      vertex -0.253 -0.4994432 0.5733634
    endloop
  endfacet
  facet normal 0.999996413 0 0.00267849648
    outer loop
      vertex -0.247509329 0.0115568 0.861302276
      vertex -0.247509329 -0.0584432 0.861302276
      vertex -0.247142537 0.0833636639 0.7243634
    endloop
  endfacet
  facet normal 0.999986954 -0.00510796334 0
    outer loop
      vertex -0.247509329 0.0115568 0.861302276
      vertex -0.247142537 0.0833636639 0.7243634
      vertex -0.247142537 0.0833636639 0.7918634
    endloop
  endfacet
  facet normal 0 0 1
    outer loop
      vertex -0.352 -0.4994432 0.5733634
      vertex -0.253 -0.4994432 0.5733634
      vertex -0.352 0.1025568 0.5733634
    endloop
  endfacet
  facet normal 0 0 1
    outer loop
      vertex -0.352 0.1025568 0.5733634
      vertex -0.253 -0.4994432 0.5733634
      vertex -0.253 0.1025568 0.5733634
    endloop
  endfacet
  facet normal 0 -1 0
    outer loop
      vertex -0.253 0.1025568 0.5733634
      vertex -0.253 0.1025568 0.8753634
      vertex -0.352 0.1025568 0.5733634
    endloop
  endfacet
  facet normal 0 -1 0
    outer loop
      vertex -0.352 0.1025568 0.5733634
      vertex -0.253 0.1025568 0.8753634
      vertex -0.352 0.1025568 0.8753634
    endloop
  endfacet
  facet normal 0 0 -1
    outer loop
      vertex -0.352 -0.4994432 0.8753634
      vertex -0.352 0.1025568 0.8753634
      vertex -0.253 -0.4994432 0.8753634
    endloop
  endfacet
  facet normal -0 0 -1
    outer loop
      vertex -0.253 -0.4994432 0.8753634
      vertex -0.352 0.1025568 0.8753634
      vertex -0.253 0.1025568 0.8753634
    endloop
  endfacet
  facet normal 0 1 0
    outer loop
      vertex -0.253 -0.4994432 0.5733634
      vertex -0.352 -0.4994432 0.5733634
      vertex -0.253 -0.4994432 0.8753634
    endloop
  endfacet
  facet normal 0 1 0
    outer loop
      vertex -0.253 -0.4994432 0.8753634
      vertex -0.352 -0.4994432 0.5733634
      vertex -0.352 -0.4994432 0.8753634
    endloop
  endfacet
  facet normal -1 -6.08139636E-16 1.60899464E-15
    outer loop
      vertex -0.352 0.12270119 0.4057187
      vertex -0.352 0.140845579 0.240074
      vertex -0.352 -0.31555578 0.240074
    endloop
  endfacet
  facet normal -1 0 0
    outer loop
      vertex -0.352 0.1025568 0.8753634
      vertex -0.352 -0.4994432 0.8753634
      vertex -0.352 0.2495568 1.172363
    endloop
  endfacet
  facet normal 0.405417136 0.819272516 0.405499064
    outer loop
      vertex -0.352 -0.648443 1.1743626
      vertex -0.352 -0.6484431 1.1743628
      vertex -0.35 -0.648443 1.172363
    endloop
  endfacet
  facet normal -1 -5.38783978E-10 -2.66671217E-10
    outer loop
      vertex -0.352 -0.648443 1.17436218
      vertex -0.352 -0.6484431 1.1743628
      vertex -0.352 -0.648443 1.1743626
    endloop
  endfacet
  facet normal -1 0 0
    outer loop
      vertex -0.352 0.1780568 0.4057187
      vertex -0.352 0.2495568 1.172363
      vertex -0.352 0.2495568 0.240074
    endloop
  endfacet
  facet normal 0.999996451 0 0.00266413098
    outer loop
      vertex -0.247509329 -0.1984432 0.861302276
      vertex -0.246780171 0.0831917002 0.587609051
      vertex -0.247509329 -0.1284432 0.861302276
    endloop
  endfacet
  facet normal -1 3.14851831E-15 1.35904777E-15
    outer loop
      vertex -0.352 0.1780568 0.4057187
      vertex -0.352 0.2495568 0.240074
      vertex -0.352 0.161402396 0.240074
    endloop
  endfacet
  facet normal -2.22238302E-07 1 2.15002512E-07
    outer loop
      vertex -0.352 -0.646443 0.240074
      vertex -0.8 -0.6464432 0.7072185
      vertex -0.35 -0.6464432 1.172363
    endloop
  endfacet
  facet normal -0.912273469 0.00823100674 0.409498923
    outer loop
      vertex -0.247509329 0.0115568 0.587424523
      vertex -0.246780171 0.0831917002 0.587609051
      vertex -0.253 0.1025568 0.5733634
    endloop
  endfacet
  facet normal -0.951180966 0.308604989 0.00421066203
    outer loop
      vertex -0.253 -0.4994432 0.8753634
      vertex -0.246780171 -0.4800781 0.861117749
      vertex -0.247142537 -0.480250064 0.7918634
    endloop
  endfacet
  facet normal 1 -4.95635168E-16 0
    outer loop
      vertex -1.248 -0.6464432 0.240074
      vertex -1.248 -0.1984431 0.7072185
      vertex -1.248 -0.6464432 1.172363
    endloop
  endfacet
  facet normal 0 0 1
    outer loop
      vertex -0.352 -0.444360865 0.240074
      vertex -1.19086044 -0.6464432 0.240074
      vertex -0.352 -0.634702782 0.240074
    endloop
  endfacet
  facet normal 1 0 -4.75323171E-16
    outer loop
      vertex -1.248 -0.0104260275 0.240074
      vertex -1.248 -0.1984431 0.7072185
      vertex -1.248 -0.6464432 0.240074
    endloop
  endfacet
  facet normal -0 0 1
    outer loop
      vertex -1.19086044 -0.6464432 0.240074
      vertex -0.352 -0.444360865 0.240074
      vertex -0.352 -0.392756378 0.240074
    endloop
  endfacet
  facet normal -2.38418683E-07 1 1.99485235E-07
    outer loop
      vertex -0.8 -0.6464432 0.7072185
      vertex -0.352 -0.646443 0.240074
      vertex -1.19086044 -0.6464432 0.240074
    endloop
  endfacet
  facet normal -1 0 -0
    outer loop
      vertex -0.352 -0.5749431 0.52586367
      vertex -0.352 -0.634702782 0.240074
      vertex -0.352 -0.646443 0.240074
    endloop
  endfacet
  facet normal 0 0 -1
    outer loop
      vertex -1.248 -0.6464432 1.172363
      vertex -0.8 -0.1984431 1.172363
      vertex -0.35 -0.6464432 1.172363
    endloop
  endfacet
  facet normal 3.09107508E-17 -1 -2.97714288E-17
    outer loop
      vertex -0.8 0.2495568 0.7072185
      vertex -0.352 0.2495568 0.240074
      vertex -0.352 0.2495568 1.172363
    endloop
  endfacet
  facet normal 0 -1 -0
    outer loop
      vertex -1.248 0.2495568 1.172363
      vertex -0.8 0.2495568 0.7072185
      vertex -0.352 0.2495568 1.172363
    endloop
  endfacet
  facet normal -0.931501248 0 0.363738126
    outer loop
      vertex -0.253 -0.4994432 0.5733634
      vertex -0.247509329 -0.4084432 0.587424523
      vertex -0.247509329 -0.3384432 0.587424523
    endloop
  endfacet
  facet normal 0.999998391 0 0.00179413539
    outer loop
      vertex -0.247509329 -0.0584432 0.861302276
      vertex -0.247509329 -0.1284432 0.861302276
      vertex -0.247142537 0.0833636639 0.6568634
    endloop
  endfacet
  facet normal 0.999934243 -0.0101916764 -0.00525735503
    outer loop
      vertex -0.247509329 0.0115568 0.861302276
      vertex -0.247142537 0.0833636639 0.7918634
      vertex -0.246780171 0.0831917 0.861117749
    endloop
  endfacet
  facet normal -0.912273466 -0.00823100353 -0.409498931
    outer loop
      vertex -0.253 -0.4994432 0.8753634
      vertex -0.247509329 -0.4084432 0.861302276
      vertex -0.246780171 -0.4800781 0.861117749
    endloop
  endfacet
  facet normal -0.956450484 0.291894626 0
    outer loop
      vertex -0.253 -0.4994432 0.8753634
      vertex -0.247142537 -0.480250064 0.7243634
      vertex -0.253 -0.4994432 0.5733634
    endloop
  endfacet
  facet normal -0.931501248 0 0.363738126
    outer loop
      vertex -0.247509329 -0.2684432 0.587424523
      vertex -0.247509329 -0.1984432 0.587424523
      vertex -0.253 -0.4994432 0.5733634
    endloop
  endfacet
  facet normal -0.931501238 0 -0.363738154
    outer loop
      vertex -0.253 -0.4994432 0.8753634
      vertex -0.247509329 -0.2684432 0.861302276
      vertex -0.247509329 -0.3384432 0.861302276
    endloop
  endfacet
  facet normal -0.931501238 0 -0.363738154
    outer loop
      vertex -0.253 -0.4994432 0.8753634
      vertex -0.247509329 -0.1984432 0.861302276
      vertex -0.247509329 -0.2684432 0.861302276
    endloop
  endfacet
endsolid CATIA STL
